<svg xmlns="http://www.w3.org/2000/svg" viewBox="0 0 900 540" role="img" aria-label="Console screenshot placeholder">
  <rect width="900" height="540" fill="#0f1420"/>
  <rect x="0" y="0" width="900" height="44" fill="#161d2c"/>
  <circle cx="26" cy="22" r="6" fill="#3d4557"/><circle cx="48" cy="22" r="6" fill="#3d4557"/><circle cx="70" cy="22" r="6" fill="#3d4557"/>
  <rect x="110" y="13" width="300" height="18" rx="9" fill="#1e2739"/>
  <rect x="24" y="72" width="200" height="14" rx="7" fill="#232d42"/>
  <g fill="#161d2c">
    <rect x="24" y="106" width="200" height="86" rx="8"/>
    <rect x="240" y="106" width="200" height="86" rx="8"/>
    <rect x="456" y="106" width="200" height="86" rx="8"/>
    <rect x="672" y="106" width="204" height="86" rx="8"/>
  </g>
  <g fill="#232d42">
    <rect x="44" y="128" width="60" height="10" rx="5"/><rect x="44" y="152" width="96" height="18" rx="5"/>
    <rect x="260" y="128" width="60" height="10" rx="5"/><rect x="260" y="152" width="96" height="18" rx="5"/>
    <rect x="476" y="128" width="60" height="10" rx="5"/><rect x="476" y="152" width="96" height="18" rx="5"/>
    <rect x="692" y="128" width="60" height="10" rx="5"/><rect x="692" y="152" width="96" height="18" rx="5"/>
  </g>
  <rect x="24" y="216" width="852" height="284" rx="8" fill="#161d2c"/>
  <g fill="#232d42">
    <rect x="48" y="244" width="120" height="12" rx="6"/><rect x="208" y="244" width="150" height="12" rx="6"/>
    <rect x="398" y="244" width="110" height="12" rx="6"/><rect x="548" y="244" width="140" height="12" rx="6"/>
    <rect x="728" y="244" width="100" height="12" rx="6"/>
  </g>
  <g fill="#1b2437">
    <rect x="48" y="288" width="780" height="14" rx="7"/><rect x="48" y="330" width="780" height="14" rx="7"/>
    <rect x="48" y="372" width="780" height="14" rx="7"/><rect x="48" y="414" width="780" height="14" rx="7"/>
    <rect x="48" y="456" width="780" height="14" rx="7"/>
  </g>
  <text x="450" y="352" text-anchor="middle" fill="#5f6c85" font-family="system-ui, sans-serif" font-size="15" letter-spacing="1.5">CONSOLE SCREENSHOT &#8212; PLACEHOLDER</text>
</svg>
